<svg xmlns="http://www.w3.org/2000/svg" viewBox="0 0 64 64">
  <circle cx="32" cy="32" r="32" fill="#25D366"/>
  <path fill="#ffffff" d="M44.2 19.8c-1.2-1.2-3-1.9-5.6-1.9-5.4 0-9.8 4.4-9.8 9.8 0 1.3.3 2.5.9 3.7l-6 6 3.9 11.4 11.7-3.8 5.8-5.8c1.2.7 2.6 1.1 4.1 1.1 5.4 0 9.8-4.4 9.8-9.8 0-2.6-.8-4.4-1.9-5.6-1.1-1.2-3.2-1.9-5.6-1.9-.9 0-1.8.1-2.7.4-1.1.3-2.1-.6-1.8-1.7.3-1.1.4-2.2.4-3.3 0-2.4-.7-4.5-1.9-5.6zM27.6 36.8c-1.7 0-3.1-1.4-3.1-3.1s1.4-3.1 3.1-3.1 3.1 1.4 3.1 3.1-1.4 3.1-3.1 3.1z"/>
</svg>