<svg xmlns="http://www.w3.org/2000/svg" width="64" height="64" viewBox="0 0 512 512">
  <circle cx="256" cy="256" r="256" fill="#25D366"/>
  <path fill="#fff" d="M380 132c-32.7-32.7-76.2-50.7-122.3-50.7-95.3 0-172.7 77.4-172.7 172.7 0 30.4 8 60.1 23.3 86.3L96 416l81.4-21.3c25.5 13.9 54.2 21.2 83.3 21.2h.1c95.2 0 172.7-77.4 172.7-172.7 0-46-18-89.5-53-124.2zm-123.9 269h-.1c-25.6 0-50.7-6.9-72.6-20l-5.2-3.1-48.3 12.6 12.9-47-3.4-5.4c-14.1-22.6-21.6-48.6-21.6-75.4 0-78.2 63.6-141.8 141.8-141.8 37.9 0 73.5 14.8 100.3 41.6 26.8 26.8 41.5 62.4 41.5 100.3 0 78.2-63.6 141.8-141.8 141.8zm82.7-107.4c-4.5-2.3-26.6-13.1-30.7-14.6-4.1-1.5-7.1-2.3-10.1 2.3-3 4.5-11.6 14.6-14.2 17.6-2.6 3-5.2 3.4-9.7 1.1-26.5-13.2-43.9-23.5-61.5-53-4.6-7.9 4.6-7.4 13.2-24.6 1.5-3 0.8-5.6-0.4-7.9-1.1-2.3-10.1-24.3-13.8-33.3-3.6-8.7-7.3-7.5-10.1-7.6h-8.6c-3 0-7.9 1.1-12 5.6-4.1 4.5-15.8 15.4-15.8 37.6 0 22.2 16.2 43.6 18.5 46.6 2.3 3 31.9 48.8 77.3 68.4 10.8 4.7 19.2 7.5 25.8 9.6 10.8 3.4 20.6 2.9 28.3 1.7 8.6-1.3 26.6-10.9 30.4-21.5 3.8-10.6 3.8-19.7 2.6-21.5-1.1-1.7-4.1-2.9-8.6-5.2z"/>
</svg>